<svg xmlns="http://www.w3.org/2000/svg" viewBox="0 0 24 24" id="Linkedin--Streamline-Font-Awesome" height="24" width="24"><desc>Linkedin Streamline Icon: https://streamlinehq.com</desc><!--! Font Awesome Free 6.5.2 by @fontawesome - https://fontawesome.com License - https://fontawesome.com/license/free (Icons: CC BY 4.0, Fonts: SIL OFL 1.1, Code: MIT License) Copyright 2024 Fonticons, Inc.--><path d="M22.080000000000002 0.24000000000000002H1.9147499999999997C0.9907499999999999 0.24000000000000002 0.24000000000000002 1.00125 0.24000000000000002 1.9357499999999999v20.1285c0 0.9344999999999999 0.7507499999999999 1.6957499999999999 1.67475 1.6957499999999999H22.080000000000002c0.924 0 1.68 -0.76125 1.68 -1.6957499999999999V1.9357499999999999c0 -0.9344999999999999 -0.756 -1.6957499999999999 -1.68 -1.6957499999999999ZM7.3485 20.4H3.8624999999999994V9.1755h3.49125V20.4Zm-1.7429999999999999 -12.757499999999999c-1.11825 0 -2.0212499999999998 -0.90825 -2.0212499999999998 -2.0212499999999998s0.903 -2.0212499999999998 2.0212499999999998 -2.0212499999999998c1.113 0 2.0212499999999998 0.90825 2.0212499999999998 2.0212499999999998 0 1.11825 -0.903 2.0212499999999998 -2.0212499999999998 2.0212499999999998ZM20.41575 20.4h-3.4859999999999998V14.94c0 -1.3019999999999998 -0.02625 -2.97675 -1.81125 -2.97675 -1.8165 0 -2.09475 1.4175 -2.09475 2.88225V20.4h-3.4859999999999998V9.1755h3.3442499999999997v1.533h0.04725c0.46724999999999994 -0.8819999999999999 1.6064999999999998 -1.81125 3.30225 -1.81125 3.5279999999999996 0 4.18425 2.3257499999999998 4.18425 5.349749999999999V20.4Z" fill="#000000" stroke-width="0.0536"></path></svg>