<svg xmlns="http://www.w3.org/2000/svg" viewBox="0 0 24 24" id="Mastodon--Streamline-Font-Awesome" height="24" width="24"><desc>Mastodon Streamline Icon: https://streamlinehq.com</desc><!--! Font Awesome Free 6.5.2 by @fontawesome - https://fontawesome.com License - https://fontawesome.com/license/free (Icons: CC BY 4.0, Fonts: SIL OFL 1.1, Code: MIT License) Copyright 2024 Fonticons, Inc.--><path d="M22.969885714285713 7.962176785714285c0 -5.102180357142857 -3.3442392857142855 -6.598194642857143 -3.3442392857142855 -6.598194642857143 -3.2817749999999997 -1.5065089285714286 -11.997482142857143 -1.4907589285714284 -15.247757142857141 0 0 0 -3.3447642857142856 1.4960142857142855 -3.3447642857142856 6.598194642857143 0 6.073280357142857 -0.34644642857142854 13.616319642857142 5.5446857142857136 15.175323214285713 2.1264321428571424 0.5616589285714285 3.953667857142857 0.6823874999999999 5.423957142857143 0.5984035714285714 2.6670964285714285 -0.1469785714285714 4.163630357142857 -0.9501 4.163630357142857 -0.9501l-0.08923392857142856 -1.9369392857142855s-1.9059696428571427 0.5984035714285714 -4.0481517857142855 0.5301642857142856c-2.1211821428571427 -0.0734892857142857 -4.356803571428571 -0.2309625 -4.704819642857143 -2.8345446428571424 -0.03226607142857142 -0.24185892857142857 -0.048053571428571425 -0.48563035714285707 -0.04724464285714285 -0.7296321428571428 4.494857142857143 1.0970732142857142 8.327791071428571 0.4776696428571428 9.382874999999999 0.3516910714285714 2.9458285714285712 -0.3516910714285714 5.511616071428571 -2.1679017857142857 5.838637499999999 -3.826633928571428 0.5144196428571428 -2.614082142857143 0.472425 -6.377732142857143 0.472425 -6.377732142857143Zm-3.943167857142857 6.571949999999999h-2.4476839285714287V8.539585714285714c0 -2.6088321428571426 -3.3594642857142856 -2.7085660714285713 -3.3594642857142856 0.36219107142857143v3.280725h-2.431933928571428v-3.28125c0 -3.0707571428571425 -3.3594642857142856 -2.9710232142857143 -3.3594642857142856 -0.36219107142857143v5.994541071428571h-2.452928571428571c0 -6.409226785714286 -0.27295714285714284 -7.763507142857143 0.9663696428571429 -9.186032142857142 1.3595303571428572 -1.5170035714285712 4.189880357142857 -1.6167374999999997 5.4502017857142855 0.3202017857142857l0.6089035714285713 1.0235839285714285 0.6089035714285713 -1.0235839285714285c1.2655714285714283 -1.9474392857142857 4.100641071428571 -1.826710714285714 5.4502017857142855 -0.3202017857142857 1.2445767857142855 1.433025 0.9658446428571428 2.782055357142857 0.9658446428571428 9.186032142857142Z" fill="#000000" stroke-width="0.0536"></path></svg>