<?xml version="1.0" standalone="no"?>
<!DOCTYPE svg PUBLIC "-//W3C//DTD SVG 20010904//EN"
 "http://www.w3.org/TR/2001/REC-SVG-20010904/DTD/svg10.dtd">
<svg version="1.0" xmlns="http://www.w3.org/2000/svg"
 width="450.000000pt" height="450.000000pt" viewBox="0 0 450.000000 450.000000"
 preserveAspectRatio="xMidYMid meet">
<metadata>
Created by potrace 1.14, written by Peter Selinger 2001-2017
</metadata>
<g transform="translate(0.000000,450.000000) scale(0.100000,-0.100000)"
fill="#000000" stroke="none">
<path d="M1570 4229 c-14 -5 -43 -30 -65 -55 -35 -39 -49 -47 -114 -64 -58
-15 -83 -27 -115 -58 -23 -21 -62 -47 -88 -56 -68 -25 -148 -135 -148 -203 0
-28 -18 -63 -75 -144 -24 -34 -30 -54 -32 -98 -1 -31 -2 -61 -2 -68 -1 -6 -21
-34 -45 -63 -58 -67 -74 -122 -51 -176 12 -28 15 -53 10 -92 -11 -89 -7 -169
11 -226 15 -47 16 -63 5 -123 -19 -108 -25 -381 -11 -578 12 -173 14 -421 4
-457 -7 -25 -21 -22 -29 5 -15 48 -71 121 -114 149 -42 26 -46 27 -53 11 -3
-10 -7 -32 -7 -50 -1 -27 4 -34 37 -50 57 -27 97 -92 116 -188 9 -44 20 -96
25 -115 5 -19 19 -69 30 -110 11 -41 25 -91 31 -110 15 -51 13 -56 -22 -74
l-33 -17 66 5 c85 6 95 -1 164 -118 154 -263 305 -425 540 -582 268 -178 491
-254 752 -254 174 0 324 40 486 129 128 71 215 139 332 256 152 152 250 299
310 468 24 67 38 93 51 95 48 7 64 13 64 23 0 8 -4 8 -14 0 -10 -8 -16 -8 -24
2 -13 15 3 133 21 155 12 15 21 65 37 192 6 47 15 102 21 122 10 40 58 102 60
77 2 -36 18 32 18 78 1 88 -23 78 -86 -34 -30 -55 -38 -63 -44 -47 -11 28 -11
158 0 170 18 18 33 371 28 662 -6 362 -8 370 -124 531 -13 18 -18 45 -18 105
-1 119 -21 154 -179 312 -180 181 -340 296 -503 361 -37 16 -82 38 -98 49 -53
38 -139 86 -180 101 -48 17 -187 43 -233 43 -18 0 -55 11 -82 25 -107 54 -158
68 -235 63 -50 -3 -85 -12 -109 -26 l-37 -22 -98 40 c-106 43 -112 44 -151 29z
m1135 -871 c280 4 349 -5 466 -59 85 -39 203 -157 248 -248 17 -35 31 -68 30
-75 0 -6 -4 -2 -9 9 -5 11 -9 14 -9 7 -1 -7 6 -23 13 -35 14 -21 20 -90 7 -83
-3 2 -7 -26 -7 -63 -1 -45 1 -55 5 -31 3 19 6 -68 7 -195 0 -126 6 -275 12
-330 17 -152 25 -552 11 -560 -7 -5 -9 -32 -4 -85 11 -124 -14 -246 -81 -398
-9 -20 -22 -50 -29 -66 -8 -18 -34 -42 -65 -60 -34 -21 -60 -45 -74 -71 -34
-64 -91 -137 -173 -223 -24 -24 -43 -47 -43 -51 0 -4 -12 -14 -27 -22 -16 -8
-52 -33 -81 -56 -63 -52 -123 -83 -155 -83 -13 0 -35 -9 -49 -19 -13 -11 -61
-32 -106 -47 -45 -14 -82 -30 -82 -34 0 -10 -68 -26 -142 -35 -68 -9 -226 12
-250 32 -9 8 -22 13 -30 11 -7 -1 -33 7 -58 19 -25 11 -60 27 -77 34 -18 8
-33 17 -33 21 0 3 -13 9 -30 13 -16 4 -30 10 -30 15 0 4 -10 10 -22 14 -13 3
-52 33 -88 66 -35 33 -67 60 -70 60 -15 0 -160 164 -160 180 0 6 -4 10 -10 10
-5 0 -26 25 -46 55 -20 30 -40 55 -45 55 -4 0 -9 9 -11 21 -2 14 -23 32 -63
52 -61 33 -87 56 -78 70 2 4 -1 15 -8 23 -20 25 -89 166 -89 183 0 10 -4 21
-9 27 -4 5 -16 34 -26 64 -10 30 -22 66 -27 79 -13 35 -18 126 -23 461 -3 178
-10 315 -17 345 -7 28 -11 56 -9 63 1 8 -3 20 -9 27 -6 8 -12 29 -12 47 -1 18
-6 36 -11 40 -7 4 -7 11 -1 20 6 7 11 41 12 76 1 34 5 68 9 75 4 6 8 23 9 37
11 171 89 356 190 451 46 43 160 111 224 134 120 44 145 45 575 37 226 -4 523
-6 660 -4z"/>
<path d="M3441 2924 c0 -11 3 -14 6 -6 3 7 2 16 -1 19 -3 4 -6 -2 -5 -13z"/>
<path d="M1490 2560 c-77 -10 -122 -26 -167 -61 -53 -43 -79 -85 -63 -104 18
-21 42 -19 113 12 57 25 72 27 182 26 66 0 163 -6 215 -12 52 -6 128 -12 169
-13 71 -2 75 -1 102 30 32 36 37 63 13 82 -27 24 -454 53 -564 40z"/>
<path d="M2817 2531 c-76 -7 -98 -23 -89 -66 6 -34 59 -78 86 -71 12 2 112 8
223 12 182 6 207 5 250 -11 27 -10 60 -27 74 -38 22 -15 31 -17 48 -8 11 7 21
20 21 31 0 33 -63 104 -115 130 -48 24 -59 25 -240 26 -104 1 -221 -1 -258 -5z"/>
<path d="M1513 2126 c-90 -21 -152 -51 -200 -98 -45 -44 -61 -82 -42 -104 9
-11 16 -7 36 22 36 55 97 105 141 119 23 7 23 6 8 -17 -40 -62 -39 -195 3
-237 41 -41 359 -72 398 -39 44 36 70 177 42 230 -18 33 -2 32 40 -1 40 -32
91 -107 91 -135 0 -9 4 -16 9 -16 12 0 21 64 10 68 -5 2 -7 8 -3 13 3 5 0 9
-7 9 -6 0 -9 8 -6 20 3 11 2 18 -2 16 -12 -8 -43 35 -37 50 3 9 1 12 -4 9 -14
-9 -51 4 -45 16 4 5 -3 9 -15 9 -13 0 -19 4 -14 12 4 6 3 8 -3 5 -5 -3 -20 0
-34 7 -85 44 -265 64 -366 42z m102 -76 c15 -17 16 -24 7 -45 -15 -32 -37 -41
-68 -27 -17 8 -24 20 -24 40 0 52 50 71 85 32z"/>
<path d="M2962 2104 c-34 -7 -71 -18 -81 -24 -11 -5 -30 -10 -43 -10 -15 0
-19 -3 -10 -8 8 -6 0 -15 -27 -29 -34 -18 -39 -19 -35 -5 5 14 3 13 -10 -2 -8
-10 -13 -23 -9 -29 3 -6 1 -7 -5 -3 -6 3 -13 2 -17 -4 -3 -5 -15 -10 -26 -10
-11 0 -22 -7 -25 -15 -8 -20 -24 -19 -24 1 0 14 -2 14 -15 0 -27 -27 -30 -72
-6 -102 12 -15 21 -21 21 -13 1 10 4 8 11 -4 9 -15 14 -11 35 30 14 27 32 55
40 63 12 12 14 9 14 -29 0 -23 9 -64 21 -91 19 -45 24 -49 72 -61 57 -13 276
-7 318 9 58 23 78 172 34 257 -13 27 -23 51 -21 52 7 7 92 -30 124 -54 18 -14
45 -47 60 -74 31 -55 44 -60 61 -23 10 23 8 31 -16 63 -49 65 -97 96 -188 120
-54 15 -176 12 -253 -5z m-28 -76 c12 -20 2 -44 -27 -62 -39 -25 -78 44 -41
71 24 17 54 13 68 -9z"/>
<path d="M2530 1950 c0 -11 7 -20 15 -20 8 0 15 9 15 20 0 11 -7 20 -15 20 -8
0 -15 -9 -15 -20z"/>
<path d="M2537 1864 c-8 -8 1 -24 14 -24 5 0 9 7 9 15 0 15 -12 20 -23 9z"/>
<path d="M2185 1717 c-4 -10 -5 -21 -1 -24 10 -10 18 4 13 24 -4 17 -4 17 -12
0z"/>
<path d="M2340 1718 c0 -4 9 -8 20 -8 11 0 20 4 20 8 0 4 -9 8 -20 8 -11 0
-20 -4 -20 -8z"/>
<path d="M2687 1680 c7 -26 43 -48 43 -26 0 16 -26 46 -40 46 -4 0 -6 -9 -3
-20z"/>
<path d="M2540 1666 c0 -8 5 -18 10 -21 6 -3 10 1 10 9 0 8 -4 18 -10 21 -5 3
-10 -1 -10 -9z"/>
<path d="M2590 1536 c0 -7 7 -33 15 -56 8 -23 15 -60 15 -81 0 -106 -164 -172
-304 -122 -66 24 -91 50 -112 117 -19 61 -34 70 -52 31 -19 -41 -14 -85 16
-145 23 -47 35 -59 83 -83 82 -41 259 -70 295 -48 17 9 15 10 -11 11 -28 1
-27 3 22 27 29 13 65 41 80 61 26 34 28 44 28 122 0 80 -2 88 -33 133 -35 50
-42 55 -42 33z"/>
<path d="M1860 1485 c-10 -12 -9 -16 5 -21 9 -4 21 -2 28 5 8 8 8 11 -2 11 -7
0 -9 5 -6 10 10 16 -11 12 -25 -5z"/>
<path d="M1706 1132 c-10 -17 6 -53 21 -48 8 4 25 9 37 12 13 3 23 12 23 20 0
8 -6 13 -13 10 -8 -3 -16 -1 -19 4 -8 12 -42 13 -49 2z"/>
<path d="M2967 1133 c-15 -2 -31 -13 -37 -23 -9 -16 -5 -19 32 -25 34 -6 44
-4 55 11 19 26 16 36 -8 29 -15 -5 -19 -4 -15 4 4 6 6 10 4 10 -2 -1 -15 -4
-31 -6z"/>
<path d="M1768 1064 c18 -33 148 -134 172 -134 6 0 10 -5 10 -11 0 -7 10 -9
28 -5 20 5 23 4 12 -4 -16 -10 -9 -13 30 -11 17 1 21 -1 12 -7 -12 -8 6 -18
96 -53 39 -15 59 -8 23 7 -46 21 -32 28 29 15 28 -6 84 -11 124 -11 40 0 109
-3 152 -7 76 -6 78 -7 49 -19 l-30 -13 43 -1 c90 0 252 66 325 133 20 19 37
33 37 30 0 -6 51 49 68 75 20 31 12 35 -35 18 -103 -36 -338 -66 -526 -66
-207 0 -397 24 -606 77 -20 5 -22 3 -13 -13z"/>
<path d="M2218 813 c7 -3 16 -2 19 1 4 3 -2 6 -13 5 -11 0 -14 -3 -6 -6z"/>
<path d="M2363 803 c15 -2 39 -2 55 0 15 2 2 4 -28 4 -30 0 -43 -2 -27 -4z"/>
<path d="M793 1240 c2 -8 12 -16 23 -17 13 -2 15 -1 4 4 -8 3 -19 11 -23 17
-6 7 -7 6 -4 -4z"/>
</g>
</svg>
